<svg width="250" height="250" viewBox="0 0 250 250" fill="none" xmlns="http://www.w3.org/2000/svg">
<path d="M245.605 135.366L197.266 198.78C194.336 201.545 190.796 202.927 186.646 202.927C182.495 202.927 178.955 201.504 176.025 198.659C173.096 195.813 171.631 192.317 171.631 188.171C171.631 184.024 173.096 180.488 176.025 177.561L216.309 124.878L176.025 72.1951C173.096 69.2683 171.631 65.7724 171.631 61.7073C171.631 57.6423 173.096 54.1463 176.025 51.2195C178.955 48.2927 182.495 46.8293 186.646 46.8293C190.796 46.8293 194.336 48.2927 197.266 51.2195L245.605 114.39C248.535 117.317 250 120.813 250 124.878C250 128.943 248.535 132.439 245.605 135.366ZM125 234.39C124.837 234.878 124.593 235.813 124.268 237.195C123.942 238.577 123.698 239.512 123.535 240L122.681 242.561L121.46 245.122L119.629 247.073L117.065 248.78L113.77 249.634L109.375 250C105.469 250 101.725 247.967 98.1445 243.902C94.5638 239.837 93.2617 235.935 94.2383 232.195L125 15.6098C127.767 5.20325 135.579 0 148.438 0C152.018 0 154.419 1.91057 155.64 5.73171C156.86 9.55285 156.901 13.5772 155.762 17.8049L125 234.39ZM73.9746 198.659C71.0449 201.504 67.5049 202.927 63.3545 202.927C59.2041 202.927 55.6641 201.545 52.7344 198.78L4.39453 135.366C1.46484 132.439 0 128.943 0 124.878C0 120.813 1.46484 117.317 4.39453 114.39L52.7344 51.2195C55.6641 48.2927 59.2041 46.8293 63.3545 46.8293C67.5049 46.8293 71.0449 48.2927 73.9746 51.2195C76.9043 54.1463 78.3691 57.6423 78.3691 61.7073C78.3691 65.7724 76.9043 69.2683 73.9746 72.1951L33.6914 124.878L73.9746 177.561C76.9043 180.488 78.3691 184.024 78.3691 188.171C78.3691 192.317 76.9043 195.813 73.9746 198.659Z" fill="white"/>
</svg>
