<svg width="250" height="250" viewBox="0 0 250 250" fill="none" xmlns="http://www.w3.org/2000/svg">
<path fill-rule="evenodd" clip-rule="evenodd" d="M166.344 10.0934C167.07 9.36588 167.932 8.78865 168.881 8.3948C169.83 8.00095 170.848 7.79822 171.875 7.79822C172.903 7.79822 173.921 8.00095 174.87 8.3948C175.819 8.78865 176.681 9.36588 177.407 10.0934L239.907 72.5934C240.634 73.3192 241.211 74.1813 241.605 75.1304C241.999 76.0796 242.202 77.0971 242.202 78.1247C242.202 79.1523 241.999 80.1698 241.605 81.119C241.211 82.0681 240.634 82.9302 239.907 83.6559L210.188 113.375L197.235 165.14C196.25 169.082 194.257 172.7 191.452 175.639C188.647 178.578 185.126 180.738 181.235 181.906L19.5941 230.406L68.0941 68.7497C69.2631 64.8631 71.4214 61.3467 74.3575 58.5448C77.2937 55.7428 80.9071 53.7514 84.8441 52.7653L136.61 39.8278L166.344 10.0934ZM138.219 55.5309L88.641 67.9216C87.3249 68.25 86.1171 68.9155 85.1363 69.8525C84.1555 70.7894 83.4355 71.9656 83.0472 73.2653L42.891 207.093L176.75 166.937C178.042 166.546 179.211 165.826 180.142 164.848C181.073 163.871 181.735 162.669 182.063 161.359L194.469 111.765L138.219 55.5153V55.5309Z" fill="white"/>
<path fill-rule="evenodd" clip-rule="evenodd" d="M44.2504 206.687L125 140.625C128.091 140.625 131.112 139.709 133.681 137.992C136.251 136.275 138.253 133.835 139.436 130.979C140.619 128.124 140.928 124.983 140.325 121.952C139.722 118.921 138.234 116.137 136.049 113.951C133.864 111.766 131.08 110.278 128.049 109.675C125.018 109.072 121.876 109.382 119.021 110.564C116.166 111.747 113.726 113.75 112.009 116.319C110.292 118.889 109.375 121.91 109.375 125L43.3129 205.75L42.9067 207.094L44.2504 206.687Z" fill="white"/>
</svg>
