<svg width="50" height="50" viewBox="0 0 50 50" fill="none" xmlns="http://www.w3.org/2000/svg">
<path fill-rule="evenodd" clip-rule="evenodd" d="M15.5521 2.22081C17.9958 2.10831 18.775 2.08331 25 2.08331C31.225 2.08331 32.0041 2.1104 34.4458 2.22081C36.8875 2.33123 38.5541 2.72081 40.0125 3.2854C41.5396 3.86248 42.925 4.76456 44.0708 5.93123C45.2375 7.07498 46.1375 8.45831 46.7125 9.98748C47.2791 11.4458 47.6666 13.1125 47.7791 15.55C47.8916 17.9979 47.9166 18.7771 47.9166 25C47.9166 31.225 47.8896 32.0041 47.7791 34.4479C47.6687 36.8854 47.2791 38.5521 46.7125 40.0104C46.1375 41.5398 45.236 42.9254 44.0708 44.0708C42.925 45.2375 41.5396 46.1375 40.0125 46.7125C38.5541 47.2791 36.8875 47.6666 34.45 47.7791C32.0041 47.8916 31.225 47.9166 25 47.9166C18.775 47.9166 17.9958 47.8896 15.5521 47.7791C13.1146 47.6687 11.4479 47.2791 9.98956 46.7125C8.46023 46.1374 7.07461 45.2359 5.92915 44.0708C4.76327 42.9264 3.86105 41.5414 3.2854 40.0125C2.72081 38.5541 2.33331 36.8875 2.22081 34.45C2.10831 32.0021 2.08331 31.2229 2.08331 25C2.08331 18.775 2.1104 17.9958 2.22081 15.5541C2.33123 13.1125 2.72081 11.4458 3.2854 9.98748C3.8619 8.45848 4.76481 7.07355 5.93123 5.92915C7.07506 4.76352 8.4593 3.86132 9.98748 3.2854C11.4458 2.72081 13.1125 2.33331 15.55 2.22081H15.5521ZM34.2604 6.34581C31.8437 6.2354 31.1187 6.21248 25 6.21248C18.8812 6.21248 18.1562 6.2354 15.7396 6.34581C13.5041 6.4479 12.2916 6.82081 11.4833 7.1354C10.4146 7.55206 9.64998 8.04581 8.8479 8.8479C8.08757 9.58759 7.50244 10.4881 7.1354 11.4833C6.82081 12.2916 6.4479 13.5041 6.34581 15.7396C6.2354 18.1562 6.21248 18.8812 6.21248 25C6.21248 31.1187 6.2354 31.8437 6.34581 34.2604C6.4479 36.4958 6.82081 37.7083 7.1354 38.5166C7.50206 39.5104 8.08748 40.4125 8.8479 41.1521C9.58748 41.9125 10.4896 42.4979 11.4833 42.8646C12.2916 43.1791 13.5041 43.5521 15.7396 43.6541C18.1562 43.7646 18.8791 43.7875 25 43.7875C31.1208 43.7875 31.8437 43.7646 34.2604 43.6541C36.4958 43.5521 37.7083 43.1791 38.5166 42.8646C39.5854 42.4479 40.35 41.9541 41.1521 41.1521C41.9125 40.4125 42.4979 39.5104 42.8646 38.5166C43.1791 37.7083 43.5521 36.4958 43.6541 34.2604C43.7646 31.8437 43.7875 31.1187 43.7875 25C43.7875 18.8812 43.7646 18.1562 43.6541 15.7396C43.5521 13.5041 43.1791 12.2916 42.8646 11.4833C42.4479 10.4146 41.9541 9.64998 41.1521 8.8479C40.4123 8.08763 39.5119 7.5025 38.5166 7.1354C37.7083 6.82081 36.4958 6.4479 34.2604 6.34581ZM22.0729 32.0646C23.7076 32.745 25.5279 32.8369 27.2227 32.3244C28.9176 31.8119 30.382 30.7269 31.3658 29.2547C32.3496 27.7824 32.7918 26.0143 32.6167 24.2523C32.4417 22.4903 31.6604 20.8437 30.4062 19.5937C29.6067 18.7947 28.64 18.1829 27.5757 17.8024C26.5113 17.4218 25.3759 17.282 24.251 17.3929C23.1261 17.5039 22.0399 17.8628 21.0704 18.444C20.1009 19.0252 19.2724 19.814 18.6444 20.7538C18.0164 21.6936 17.6045 22.761 17.4386 23.8791C17.2726 24.9971 17.3565 26.1381 17.6844 27.2198C18.0123 28.3015 18.576 29.2971 19.3348 30.1348C20.0936 30.9725 21.0288 31.6316 22.0729 32.0646ZM16.6708 16.6708C17.7646 15.577 19.0631 14.7094 20.4923 14.1174C21.9214 13.5254 23.4531 13.2208 25 13.2208C26.5468 13.2208 28.0786 13.5254 29.5077 14.1174C30.9368 14.7094 32.2353 15.577 33.3291 16.6708C34.4229 17.7646 35.2906 19.0631 35.8826 20.4923C36.4745 21.9214 36.7792 23.4531 36.7792 25C36.7792 26.5468 36.4745 28.0786 35.8826 29.5077C35.2906 30.9368 34.4229 32.2353 33.3291 33.3291C31.1201 35.5382 28.124 36.7792 25 36.7792C21.8759 36.7792 18.8798 35.5382 16.6708 33.3291C14.4618 31.1201 13.2208 28.124 13.2208 25C13.2208 21.8759 14.4618 18.8798 16.6708 16.6708ZM39.3916 14.975C39.6627 14.7193 39.8797 14.4118 40.0298 14.0708C40.1799 13.7297 40.26 13.362 40.2654 12.9894C40.2709 12.6168 40.2015 12.247 40.0614 11.9017C39.9213 11.5564 39.7134 11.2427 39.4499 10.9792C39.1864 10.7157 38.8727 10.5078 38.5275 10.3677C38.1822 10.2276 37.8123 10.1583 37.4397 10.1637C37.0671 10.1691 36.6994 10.2493 36.3584 10.3993C36.0173 10.5494 35.7098 10.7664 35.4541 11.0375C34.9569 11.5646 34.6846 12.2648 34.6952 12.9894C34.7058 13.714 34.9983 14.406 35.5107 14.9184C36.0231 15.4308 36.7151 15.7234 37.4397 15.7339C38.1643 15.7445 38.8645 15.4722 39.3916 14.975Z" fill="white"/>
</svg>
