<?xml version="1.0" encoding="UTF-8" standalone="no"?>
<svg
   xmlns:dc="http://purl.org/dc/elements/1.1/"
   xmlns:cc="http://creativecommons.org/ns#"
   xmlns:rdf="http://www.w3.org/1999/02/22-rdf-syntax-ns#"
   xmlns:svg="http://www.w3.org/2000/svg"
   xmlns="http://www.w3.org/2000/svg"
   xmlns:sodipodi="http://sodipodi.sourceforge.net/DTD/sodipodi-0.dtd"
   xmlns:inkscape="http://www.inkscape.org/namespaces/inkscape"
   width="210mm"
   height="297mm"
   viewBox="0 0 210 297"
   version="1.1"
   id="svg8"
   inkscape:version="1.0.1 (3bc2e813f5, 2020-09-07)"
   sodipodi:docname="leaf.svg">
  <defs
     id="defs2" />
  <sodipodi:namedview
     id="base"
     pagecolor="#ffffff"
     bordercolor="#666666"
     borderopacity="1.0"
     inkscape:pageopacity="0.0"
     inkscape:pageshadow="2"
     inkscape:zoom="0.98994949"
     inkscape:cx="389.66244"
     inkscape:cy="641.55272"
     inkscape:document-units="mm"
     inkscape:current-layer="layer1"
     inkscape:document-rotation="0"
     showgrid="false"
     inkscape:window-width="1500"
     inkscape:window-height="1040"
     inkscape:window-x="50"
     inkscape:window-y="0"
     inkscape:window-maximized="0" />
  <metadata
     id="metadata5">
    <rdf:RDF>
      <cc:Work
         rdf:about="">
        <dc:format>image/svg+xml</dc:format>
        <dc:type
           rdf:resource="http://purl.org/dc/dcmitype/StillImage" />
        <dc:title></dc:title>
      </cc:Work>
    </rdf:RDF>
  </metadata>
  <g
     inkscape:label="Слой 1"
     inkscape:groupmode="layer"
     id="layer1">
    <ellipse
       style="fill:#008000;stroke:#004c00;stroke-width:1.43771;stroke-miterlimit:4;stroke-dasharray:none;stroke-opacity:1"
       id="path833"
       cx="-128.65587"
       cy="119.06358"
       rx="39.467445"
       ry="27.407347"
       transform="matrix(0.00846346,-0.99996418,0.96541442,0.26072015,0,0)" />
    <path
       style="fill:#d45500;stroke:#000000;stroke-width:0.264583px;stroke-linecap:butt;stroke-linejoin:miter;stroke-opacity:1"
       d="m 101.02788,120.80582 c 0,0 5.34539,-6.949 0.80181,-14.43255 -4.543582,-7.483546 -6.681738,-14.967093 -5.61266,-19.510674 1.069078,-4.543584 8.81989,15.234364 9.88897,20.579754 1.06908,5.34539 -1.06908,9.35443 1.87089,10.69078 2.93996,1.33635 -6.94901,2.67269 -6.94901,2.67269 z"
       id="path835" />
    <path
       style="fill:#00c300;stroke:#17cb00;stroke-width:0.264583px;stroke-linecap:butt;stroke-linejoin:miter;stroke-opacity:1;fill-opacity:1"
       d="m 91.940716,149.1364 c 0,0 2.405425,17.37251 5.879931,21.64883 3.474503,4.27631 11.225313,4.81085 13.898013,7.48354 2.67269,2.6727 14.43255,21.9161 9.6217,7.21628 -4.81085,-14.69982 -10.15624,-9.35443 -13.63074,-15.23436 -3.47451,-5.87993 -10.156245,-9.35443 -7.21628,-17.10525 2.93996,-7.75082 -8.552624,-4.00904 -8.552624,-4.00904 z"
       id="path837" />
  </g>
</svg>
